/* XPM */
static char *egc[] = {

/* width,height,nrcolors,charsperpixel */
" 10 10 2 1 ",

/* colors #RRGGBB */
"R c #FF0000",
"_ c #FFFFFF",

/* pixels */
"__________",
"__________",
"__________",
"__________",
"____R_____",
"_____R____",
"______R___",
"__________",
"__________",
"__________"
};