/* XPM */
static char *egc[] = {

/* width,height,nrcolors,charsperpixel */
" 50 50 50 1 ",

/* colors #RRGGBB */
"q c #500000",
"z c #7d0000",
"K c #b40000",
"w c #6e0000",
"v c #690000",
"M c #be0000",
"H c #a50000",
"l c #370000",
"n c #410000",
"g c #1e0000",
"P c #cd0000",
"T c #e10000",
"Q c #d20000",
"y c #780000",
"a c #000000",
"O c #c80000",
"A c #820000",
"R c #d70000",
"U c #e60000",
"h c #230000",
"e c #140000",
"C c #8c0000",
"p c #4b0000",
"s c #5a0000",
"V c #eb0000",
"o c #460000",
"F c #9b0000",
"r c #550000",
"c c #0a0000",
"B c #870000",
"k c #320000",
"W c #f00000",
"d c #0f0000",
"D c #910000",
"m c #3c0000",
"G c #a00000",
"J c #af0000",
"j c #2d0000",
"u c #640000",
"E c #960000",
"x c #730000",
"I c #aa0000",
"S c #dc0000",
"t c #5f0000",
"b c #050000",
"X c #f50000",
"N c #c30000",
"i c #280000",
"L c #b90000",
"f c #190000",

/* pixels */
"abcdefghijklmnopqrstuvwxyzABCDEFGHIJKLMNOPQRSTUVWX",
"abcdefghijklmnopqrstuvwxyzABCDEFGHIJKLMNOPQRSTUVWX",
"abcdefghijklmnopqrstuvwxyzABCDEFGHIJKLMNOPQRSTUVWX",
"abcdefghijklmnopqrstuvwxyzABCDEFGHIJKLMNOPQRSTUVWX",
"abcdefghijklmnopqrstuvwxyzABCDEFGHIJKLMNOPQRSTUVWX",
"abcdefghijklmnopqrstuvwxyzABCDEFGHIJKLMNOPQRSTUVWX",
"abcdefghijklmnopqrstuvwxyzABCDEFGHIJKLMNOPQRSTUVWX",
"abcdefghijklmnopqrstuvwxyzABCDEFGHIJKLMNOPQRSTUVWX",
"abcdefghijklmnopqrstuvwxyzABCDEFGHIJKLMNOPQRSTUVWX",
"abcdefghijklmnopqrstuvwxyzABCDEFGHIJKLMNOPQRSTUVWX",
"abcdefghijklmnopqrstuvwxyzABCDEFGHIJKLMNOPQRSTUVWX",
"abcdefghijklmnopqrstuvwxyzABCDEFGHIJKLMNOPQRSTUVWX",
"abcdefghijklmnopqrstuvwxyzABCDEFGHIJKLMNOPQRSTUVWX",
"abcdefghijklmnopqrstuvwxyzABCDEFGHIJKLMNOPQRSTUVWX",
"abcdefghijklmnopqrstuvwxyzABCDEFGHIJKLMNOPQRSTUVWX",
"abcdefghijklmnopqrstuvwxyzABCDEFGHIJKLMNOPQRSTUVWX",
"abcdefghijklmnopqrstuvwxyzABCDEFGHIJKLMNOPQRSTUVWX",
"abcdefghijklmnopqrstuvwxyzABCDEFGHIJKLMNOPQRSTUVWX",
"abcdefghijklmnopqrstuvwxyzABCDEFGHIJKLMNOPQRSTUVWX",
"abcdefghijklmnopqrstuvwxyzABCDEFGHIJKLMNOPQRSTUVWX",
"abcdefghijklmnopqrstuvwxyzABCDEFGHIJKLMNOPQRSTUVWX",
"abcdefghijklmnopqrstuvwxyzABCDEFGHIJKLMNOPQRSTUVWX",
"abcdefghijklmnopqrstuvwxyzABCDEFGHIJKLMNOPQRSTUVWX",
"abcdefghijklmnopqrstuvwxyzABCDEFGHIJKLMNOPQRSTUVWX",
"abcdefghijklmnopqrstuvwxyzABCDEFGHIJKLMNOPQRSTUVWX",
"abcdefghijklmnopqrstuvwxyzABCDEFGHIJKLMNOPQRSTUVWX",
"abcdefghijklmnopqrstuvwxyzABCDEFGHIJKLMNOPQRSTUVWX",
"abcdefghijklmnopqrstuvwxyzABCDEFGHIJKLMNOPQRSTUVWX",
"abcdefghijklmnopqrstuvwxyzABCDEFGHIJKLMNOPQRSTUVWX",
"abcdefghijklmnopqrstuvwxyzABCDEFGHIJKLMNOPQRSTUVWX",
"abcdefghijklmnopqrstuvwxyzABCDEFGHIJKLMNOPQRSTUVWX",
"abcdefghijklmnopqrstuvwxyzABCDEFGHIJKLMNOPQRSTUVWX",
"abcdefghijklmnopqrstuvwxyzABCDEFGHIJKLMNOPQRSTUVWX",
"abcdefghijklmnopqrstuvwxyzABCDEFGHIJKLMNOPQRSTUVWX",
"abcdefghijklmnopqrstuvwxyzABCDEFGHIJKLMNOPQRSTUVWX",
"abcdefghijklmnopqrstuvwxyzABCDEFGHIJKLMNOPQRSTUVWX",
"abcdefghijklmnopqrstuvwxyzABCDEFGHIJKLMNOPQRSTUVWX",
"abcdefghijklmnopqrstuvwxyzABCDEFGHIJKLMNOPQRSTUVWX",
"abcdefghijklmnopqrstuvwxyzABCDEFGHIJKLMNOPQRSTUVWX",
"abcdefghijklmnopqrstuvwxyzABCDEFGHIJKLMNOPQRSTUVWX",
"abcdefghijklmnopqrstuvwxyzABCDEFGHIJKLMNOPQRSTUVWX",
"abcdefghijklmnopqrstuvwxyzABCDEFGHIJKLMNOPQRSTUVWX",
"abcdefghijklmnopqrstuvwxyzABCDEFGHIJKLMNOPQRSTUVWX",
"abcdefghijklmnopqrstuvwxyzABCDEFGHIJKLMNOPQRSTUVWX",
"abcdefghijklmnopqrstuvwxyzABCDEFGHIJKLMNOPQRSTUVWX",
"abcdefghijklmnopqrstuvwxyzABCDEFGHIJKLMNOPQRSTUVWX",
"abcdefghijklmnopqrstuvwxyzABCDEFGHIJKLMNOPQRSTUVWX",
"abcdefghijklmnopqrstuvwxyzABCDEFGHIJKLMNOPQRSTUVWX",
"abcdefghijklmnopqrstuvwxyzABCDEFGHIJKLMNOPQRSTUVWX",
"abcdefghijklmnopqrstuvwxyzABCDEFGHIJKLMNOPQRSTUVWX"
};