/* XPM */
static char *egc[] = {

/* width,height,nrcolors,charsperpixel */
" 50 50 2 1 ",

/* colors #RRGGBB */
"R c #FF0000",
"_ c #FFFFFF",

/* pixels */
"__________________________________________________",
"__________________________________________________",
"__________________________________________________",
"__________________________________________________",
"__________________________________________________",
"________RR________________________________________",
"________RRRRRR____________________________________",
"________RRRRRRRRR_________________________________",
"________RRRRRRRRRRRR______________________________",
"________RRRRRRRRRRRRRRRR__________________________",
"________RRRRRRRRRRRRRRRRRR________________________",
"________RRRRRRRRRRRRRRRRRR________________________",
"_________RRRRRRRRRRRRRRRRR________________________",
"_________RRRRRRRRRRRRRRRRR________________________",
"_________RRRRRRRRRRRRRRRRR________________________",
"_________RRRRRRRRRRRRRRRRR________________________",
"_________RRRRRRRRRRRRRRRRR________________________",
"_________RRRRRRRRRRRRRRRRR________________________",
"_________RRRRRRRRRRRRRRRRR________________________",
"_________RRRRRRRRRRRRRRRRR________________________",
"_________RRRRRRRRRRRRRRRRR________________________",
"_________RRRRRRRRRRRRRRRRR________________________",
"_________RRRRRRRRRRRRRRRRR________________________",
"_________RRRRRRRRRRRRRRRRR________________________",
"_________RRRRRRRRRRRRRRRRR________________________",
"_________RRRRRRRRRRRRRRRRRR_______________________",
"__________RRRRRRRRRRRRRRRRR_______________________",
"__________RRRRRRRRRRRRRRRRR_______________________",
"__________RRRRRRRRRRRRRRRRR_______________________",
"__________RRRRRRRRRRRRRRRRR_______________________",
"__________RRRRRRRRRRRRRRRRR_______________________",
"__________RRRRRRRRRRRRRRRRR_______________________",
"__________RRRRRRRRRRRRRRRRR_______________________",
"___________RRRRRRRRRRRRRRRR_______________________",
"_____________RRRRRRRRRRRRRR_______________________",
"_______________RRRRRRRRRRRR_______________________",
"_________________RRRRRRRRRR_______________________",
"___________________RRRRRRRR_______________________",
"_____________________RRRRRR_______________________",
"_______________________RRRR_______________________",
"_________________________RR_______________________",
"__________________________________________________",
"__________________________________________________",
"__________________________________________________",
"__________________________________________________",
"__________________________________________________",
"__________________________________________________",
"__________________________________________________",
"__________________________________________________",
"__________________________________________________"
};