/* XPM */
static char *egc[] = {

/* width,height,nrcolors,charsperpixel */
" 50 50 2 1 ",

/* colors #RRGGBB */
"R c #FF0000",
"_ c #FFFFFF",

/* pixels */
"__________________________________________________",
"__________________________________________________",
"__________________________________________________",
"__________________________________________________",
"__________________________________________________",
"________RR________________________________________",
"________R_RRRR____________________________________",
"________R_____RRR_________________________________",
"________R________RRR______________________________",
"________R___________RRRR__________________________",
"________R_______________RR________________________",
"________R________________R________________________",
"_________R_______________R________________________",
"_________R_______________R________________________",
"_________R_______________R________________________",
"_________R_______________R________________________",
"_________R_______________R________________________",
"_________R_______________R________________________",
"_________R_______________R________________________",
"_________R_______________R________________________",
"_________R_______________R________________________",
"_________R_______________R________________________",
"_________R_______________R________________________",
"_________R_______________R________________________",
"_________R_______________R________________________",
"_________R_______________R________________________",
"__________R_______________R_______________________",
"__________R_______________R_______________________",
"__________R_______________R_______________________",
"__________R_______________R_______________________",
"__________R_______________R_______________________",
"__________R_______________R_______________________",
"__________R_______________R_______________________",
"___________RR_____________R_______________________",
"_____________RR___________R_______________________",
"_______________RR_________R_______________________",
"_________________RR_______R_______________________",
"___________________RR_____R_______________________",
"_____________________RR___R_______________________",
"_______________________RR_R_______________________",
"_________________________RR_______________________",
"__________________________________________________",
"__________________________________________________",
"__________________________________________________",
"__________________________________________________",
"__________________________________________________",
"__________________________________________________",
"__________________________________________________",
"__________________________________________________",
"__________________________________________________"
};